# xmcd
#
# Track frame offsets:
#       150
#       16274
#       32255
#       66097
#       84223
#       105356
#       128094
#       155461
#
# Disc length: 2222 seconds
#
# Revision: 0
# Processed by: cddbd v1.5.2PL0 Copyright (c) Steve Scherf et al.
# Submitted via: WhereIsIt 3.90Beta1
#
DISCID=4c08ac08
DTITLE=Allman Brothers/Enlighted Rogues
DYEAR=1900
DGENRE=
TTITLE0=Need your love so bad.cda
TTITLE1=Pegasus.cda
TTITLE2=Just ain't easy.cda
TTITLE3=Sail away.cda
TTITLE4=Crazy love.cda
TTITLE5=Try it one more time.cda
TTITLE6=Blind love.cda
TTITLE7=Can't take it with you
EXTD=
EXTT0=
EXTT1=
EXTT2=
EXTT3=
EXTT4=
EXTT5=
EXTT6=
EXTT7=
PLAYORDER=
